<?xml version="1.0" encoding="iso-8859-1"?>
<!-- Generator: Adobe Illustrator 19.0.0, SVG Export Plug-In . SVG Version: 6.00 Build 0)  -->
<svg version="1.1" id="Layer_1" xmlns="http://www.w3.org/2000/svg" xmlns:xlink="http://www.w3.org/1999/xlink" x="0px" y="0px"
	 viewBox="0 0 512 512" style="enable-background:new 0 0 512 512;" xml:space="preserve">
<rect x="233.926" y="5.818" style="fill:#6C0014;" width="34.909" height="69.818"/>
<polygon style="fill:#FFE98F;" points="316.792,111.957 185.968,111.957 129.197,168.727 129.197,512 373.561,512 373.561,168.727 
	"/>
<polygon style="fill:#FFC170;" points="316.792,111.957 251.379,111.957 251.379,512 373.561,512 373.561,168.727 "/>
<rect x="169.926" y="221.091" style="fill:#FFFFFF;" width="162.909" height="209.455"/>
<g>
	<polygon style="fill:#FF5023;" points="375.956,46.206 319.469,34.909 175.744,34.909 175.744,0 322.927,0 382.803,11.976 	"/>
	<rect x="175.744" y="69.818" style="fill:#FF5023;" width="81.455" height="52.364"/>
</g>
<rect x="251.38" y="69.818" style="fill:#A2001D;" width="75.636" height="52.364"/>
<g>
	<rect x="204.835" y="279.273" style="fill:#FFC170;" width="93.091" height="34.909"/>
	<rect x="228.108" y="337.455" style="fill:#FFC170;" width="46.545" height="34.909"/>
</g>
<g>
</g>
<g>
</g>
<g>
</g>
<g>
</g>
<g>
</g>
<g>
</g>
<g>
</g>
<g>
</g>
<g>
</g>
<g>
</g>
<g>
</g>
<g>
</g>
<g>
</g>
<g>
</g>
<g>
</g>
</svg>
